<?xml version="1.0" standalone="no"?>
<!DOCTYPE svg PUBLIC "-//W3C//DTD SVG 20010904//EN"
 "http://www.w3.org/TR/2001/REC-SVG-20010904/DTD/svg10.dtd">
<svg version="1.0" xmlns="http://www.w3.org/2000/svg"
 width="512.000000pt" height="512.000000pt" viewBox="0 0 512.000000 512.000000"
 preserveAspectRatio="xMidYMid meet">
<metadata>
Created by potrace 1.16, written by Peter Selinger 2001-2019
</metadata>
<g transform="translate(0.000000,512.000000) scale(0.100000,-0.100000)"
fill="#000000" stroke="none">
<path d="M0 2560 l0 -2560 2560 0 2560 0 0 2560 0 2560 -2560 0 -2560 0 0
-2560z m4886 2411 c-3 -4 8 -20 24 -34 16 -15 36 -40 45 -57 8 -16 18 -30 21
-30 3 0 2 5 -2 12 -4 7 -3 8 4 4 15 -9 17 -266 2 -266 -6 0 -10 -27 -10 -60 0
-33 4 -60 10 -60 7 0 10 -708 10 -2105 0 -1677 -3 -2105 -12 -2105 -7 0 -22
-17 -33 -38 -13 -25 -35 -45 -66 -60 l-45 -22 -2278 -1 -2277 -1 -46 24 c-30
15 -53 36 -65 60 -19 35 -19 96 -18 2328 0 1946 2 2296 14 2325 8 19 34 48 57
64 l42 31 2314 0 c1273 0 2312 -4 2309 -9z"/>
<path d="M250 4870 c-20 -20 -20 -33 -20 -2308 l0 -2289 21 -19 c21 -19 73
-19 2310 -19 2183 0 2289 1 2306 18 17 17 18 117 21 2107 1 1461 -1 2090 -8
2090 -19 0 -104 -93 -152 -165 -41 -62 -54 -74 -103 -94 -61 -25 -70 -36 -101
-131 -27 -81 -19 -109 42 -151 50 -34 52 -41 24 -86 -28 -47 -50 -55 -134 -47
-56 5 -85 3 -125 -11 -55 -18 -201 -109 -265 -166 -21 -18 -47 -33 -57 -34
-11 0 -46 -32 -82 -74 -35 -42 -92 -95 -130 -121 -38 -26 -79 -60 -91 -75 -19
-24 -25 -26 -43 -16 -43 23 -96 14 -140 -24 -33 -28 -49 -56 -88 -152 -41
-101 -49 -131 -53 -204 -5 -101 9 -141 84 -244 76 -103 140 -138 179 -95 17
18 21 41 25 130 l5 108 78 -92 c100 -118 112 -153 104 -321 -5 -107 -46 -424
-65 -499 -7 -28 -10 -25 -64 65 -38 63 -64 120 -78 174 -25 93 -43 118 -81
113 -26 -4 -26 -4 -31 76 -7 98 -40 200 -98 298 -63 104 -105 148 -145 148
-18 0 -38 -7 -45 -15 -7 -8 -17 -15 -22 -15 -13 0 -6 41 21 114 12 32 21 73
19 90 -3 27 -7 31 -35 34 -18 2 -42 -2 -53 -8 -12 -6 -24 -10 -26 -7 -3 2 11
35 31 73 19 38 35 80 35 94 0 31 -26 70 -46 70 -17 0 -17 -2 1 50 25 72 16
160 -18 160 -7 0 -18 4 -26 9 -11 7 -6 20 28 62 23 28 44 64 47 78 39 182 90
337 126 383 l18 23 29 -33 c20 -23 30 -29 34 -20 3 8 6 6 6 -6 1 -10 10 -34
22 -52 15 -25 20 -47 17 -81 -3 -52 16 -71 31 -30 24 63 122 137 241 183 25 9
49 21 54 25 5 4 -9 38 -33 78 -22 38 -41 72 -41 76 0 3 30 5 68 3 l67 -3 -3
-30 c-2 -16 -4 -39 -5 -50 -4 -37 25 -20 43 25 16 42 20 45 57 48 l40 3 38
-85 c21 -48 44 -86 52 -86 20 0 16 21 -21 108 l-34 79 60 17 c33 9 86 30 119
46 41 21 73 30 109 30 47 0 53 3 117 62 73 65 160 112 235 126 41 8 83 28 206
98 l33 19 -3 171 c-3 153 -5 174 -22 193 l-19 21 -2289 0 c-2275 0 -2288 0
-2308 -20z m420 -26 c0 -17 -17 -18 -23 -1 -4 9 -8 8 -16 -3 -9 -13 -11 -12
-11 6 0 17 5 20 25 16 14 -2 25 -11 25 -18z m297 -6 c-3 -7 -5 -2 -5 12 0 14
2 19 5 13 2 -7 2 -19 0 -25z m201 10 c2 -11 -4 -16 -22 -14 -18 1 -26 7 -26
18 0 23 44 18 48 -4z m779 0 c-3 -8 -6 -5 -6 6 -1 11 2 17 5 13 3 -3 4 -12 1
-19z m-1240 -10 c-3 -8 -6 -5 -6 6 -1 11 2 17 5 13 3 -3 4 -12 1 -19z m50 0
c-3 -8 -6 -5 -6 6 -1 11 2 17 5 13 3 -3 4 -12 1 -19z m80 0 c-3 -8 -6 -5 -6 6
-1 11 2 17 5 13 3 -3 4 -12 1 -19z m103 7 c0 -8 -4 -15 -10 -15 -5 0 -10 7
-10 15 0 8 5 15 10 15 6 0 10 -7 10 -15z m57 -7 c-3 -8 -6 -5 -6 6 -1 11 2 17
5 13 3 -3 4 -12 1 -19z m220 0 c-3 -8 -6 -5 -6 6 -1 11 2 17 5 13 3 -3 4 -12
1 -19z m130 0 c-3 -8 -6 -5 -6 6 -1 11 2 17 5 13 3 -3 4 -12 1 -19z m233 6 c0
-8 -5 -12 -10 -9 -6 4 -8 11 -5 16 9 14 15 11 15 -7z m27 -6 c-3 -8 -6 -5 -6
6 -1 11 2 17 5 13 3 -3 4 -12 1 -19z m-337 8 c0 -3 -4 -8 -10 -11 -5 -3 -10
-1 -10 4 0 6 5 11 10 11 6 0 10 -2 10 -4z m508 -242 c-3 -14 -5 -12 -10 9 -3
19 -2 25 4 19 6 -6 8 -18 6 -28z m40 5 c-3 -8 -7 -3 -11 10 -4 17 -3 21 5 13
5 -5 8 -16 6 -23z m-1311 -11 c-3 -7 -5 -2 -5 12 0 14 2 19 5 13 2 -7 2 -19 0
-25z m130 0 c-3 -7 -5 -2 -5 12 0 14 2 19 5 13 2 -7 2 -19 0 -25z m53 28 c0
-11 -19 -15 -25 -6 -3 5 1 10 9 10 9 0 16 -2 16 -4z m29 -27 c-19 -12 -24 -2
-8 17 9 11 14 13 17 4 3 -7 -2 -16 -9 -21z m51 11 c0 -19 -11 -26 -23 -14 -8
8 3 34 14 34 5 0 9 -9 9 -20z m87 14 c-3 -3 -12 -4 -19 -1 -8 3 -5 6 6 6 11 1
17 -2 13 -5z m133 -14 c0 -11 -4 -20 -9 -20 -5 0 -7 9 -4 20 3 11 7 20 9 20 2
0 4 -9 4 -20z m80 -6 c0 -8 -4 -12 -10 -9 -5 3 -10 13 -10 21 0 8 5 12 10 9 6
-3 10 -13 10 -21z m153 6 c-3 -11 -7 -20 -9 -20 -2 0 -4 9 -4 20 0 11 4 20 9
20 5 0 7 -9 4 -20z m307 -3 c0 -15 -47 -21 -55 -7 -3 6 1 7 9 4 9 -4 18 1 22
10 7 17 24 12 24 -7z m57 -2 c-4 -8 -12 -15 -19 -14 -10 0 -10 2 0 6 6 2 12
12 12 21 0 8 3 13 6 9 4 -3 4 -13 1 -22z m63 15 c0 -5 -4 -10 -10 -10 -5 0
-10 5 -10 10 0 6 5 10 10 10 6 0 10 -4 10 -10z m36 -16 c-4 -9 -9 -15 -11 -12
-3 3 -3 13 1 22 4 9 9 15 11 12 3 -3 3 -13 -1 -22z m-752 1 c3 -8 1 -15 -4
-15 -6 0 -10 7 -10 15 0 8 2 15 4 15 2 0 6 -7 10 -15z m381 -7 c6 -4 2 -8 -7
-8 -10 0 -18 7 -18 17 0 9 3 12 8 7 4 -5 12 -12 17 -16z m-140 -6 c-3 -3 -11
0 -18 7 -9 10 -8 11 6 5 10 -3 15 -9 12 -12z m90 8 c3 -5 1 -10 -4 -10 -6 0
-11 5 -11 10 0 6 2 10 4 10 3 0 8 -4 11 -10z m2332 -226 c63 -31 95 -67 122
-138 38 -103 38 -106 -2 -106 -30 0 -45 10 -113 81 -85 86 -153 137 -196 146
-38 8 -35 18 10 37 48 21 111 14 179 -20z m-3130 -131 c-3 -10 -5 -4 -5 12 0
17 2 24 5 18 2 -7 2 -21 0 -30z m343 -213 c0 -5 -4 -10 -10 -10 -5 0 -10 5
-10 10 0 6 5 10 10 10 6 0 10 -4 10 -10z m90 -20 c0 -16 -4 -30 -8 -30 -5 0
-8 10 -6 23 1 12 3 25 3 30 3 21 11 3 11 -23z m70 6 c0 -13 5 -27 10 -29 6 -3
5 -4 -2 -3 -14 3 -31 56 -17 56 5 0 9 -11 9 -24z m178 13 c-24 -14 -22 -28 5
-39 21 -8 21 -9 -5 -9 -25 -1 -28 3 -28 29 0 25 4 30 23 30 20 -1 20 -2 5 -11z
m302 -19 c0 -21 -5 -30 -16 -30 -13 0 -14 3 -5 13 6 8 8 17 5 20 -6 6 3 27 12
27 2 0 4 -13 4 -30z m197 -17 c-3 -10 -5 -2 -5 17 0 19 2 27 5 18 2 -10 2 -26
0 -35z m-1117 27 c0 -5 -4 -10 -10 -10 -5 0 -10 -8 -11 -17 0 -11 -2 -13 -6
-5 -3 7 -2 19 1 27 6 17 26 20 26 5z m947 -22 c-3 -7 -5 -2 -5 12 0 14 2 19 5
13 2 -7 2 -19 0 -25z m-797 -6 c0 -15 -2 -15 -10 -2 -13 20 -13 33 0 25 6 -3
10 -14 10 -23z m180 24 c0 -2 -7 -6 -15 -10 -8 -3 -15 -1 -15 4 0 6 7 10 15
10 8 0 15 -2 15 -4z m73 -16 c3 -11 1 -20 -4 -20 -5 0 -9 9 -9 20 0 11 2 20 4
20 2 0 6 -9 9 -20z m297 0 c0 -11 -6 -20 -14 -20 -9 0 -12 7 -9 20 3 11 9 20
14 20 5 0 9 -9 9 -20z m40 16 c0 -3 -4 -8 -10 -11 -5 -3 -10 -1 -10 4 0 6 5
11 10 11 6 0 10 -2 10 -4z m45 -34 c-8 -8 -25 10 -25 26 0 13 2 13 14 -4 8
-10 13 -21 11 -22z m81 1 c-11 -11 -17 4 -9 23 7 18 8 18 11 1 2 -10 1 -21 -2
-24z m-669 5 c-3 -8 -6 -5 -6 6 -1 11 2 17 5 13 3 -3 4 -12 1 -19z m288 11
c11 -17 -1 -21 -15 -4 -8 9 -8 15 -2 15 6 0 14 -5 17 -11z m2299 -18 c3 -5 -3
-20 -14 -32 l-19 -24 -1 33 c0 31 21 45 34 23z m-298 -107 c-5 -14 -66 -20
-66 -7 0 4 15 22 33 41 l32 33 3 -26 c2 -15 1 -33 -2 -41z m444 26 c0 -10 -4
-22 -10 -25 -6 -4 -10 7 -10 25 0 18 4 29 10 25 6 -3 10 -15 10 -25z m-555 11
c3 -5 1 -12 -5 -16 -5 -3 -10 1 -10 9 0 18 6 21 15 7z m-1895 -31 c5 0 11 8
13 18 4 13 5 11 6 -5 1 -16 -5 -23 -17 -23 -25 0 -32 9 -24 28 6 15 7 15 10 0
2 -10 7 -18 12 -18z m82 8 c-5 -22 -35 -21 -40 2 -1 10 6 15 22 16 19 1 22 -2
18 -18z m35 0 c-3 -8 -6 -5 -6 6 -1 11 2 17 5 13 3 -3 4 -12 1 -19z m63 -30
c0 -8 -5 -6 -11 4 -5 9 -16 15 -24 12 -10 -4 -12 0 -8 14 5 20 5 20 24 1 10
-10 19 -25 19 -31z m1513 32 c-7 -25 -19 -34 -28 -20 -10 16 2 40 19 40 9 0
12 -7 9 -20z m40 1 c5 -22 -1 -33 -14 -25 -12 7 -12 44 0 44 5 0 11 -9 14 -19z
m37 9 c0 -5 -4 -10 -9 -10 -6 0 -13 5 -16 10 -3 6 1 10 9 10 9 0 16 -4 16 -10z
m46 -5 c-3 -8 0 -15 6 -15 7 0 6 -5 -2 -15 -8 -10 -17 -12 -23 -6 -11 11 0 51
15 51 5 0 8 -7 4 -15z m44 5 c0 -5 -2 -10 -4 -10 -3 0 -8 5 -11 10 -3 6 -1 10
4 10 6 0 11 -4 11 -10z m340 -16 c0 -20 -4 -23 -36 -20 -20 2 -40 10 -45 17
-7 11 -9 10 -9 -5 0 -20 0 -20 -15 0 -8 10 -15 22 -15 25 0 4 27 6 60 6 56 0
60 -2 60 -23z m37 6 c-1 -11 -5 -20 -9 -20 -4 0 -8 2 -8 4 0 2 -3 11 -6 20 -4
10 -1 16 9 16 10 0 15 -8 14 -20z m258 10 c3 -5 12 -7 20 -3 8 3 15 0 15 -6 0
-6 -7 -11 -15 -11 -8 0 -15 -4 -15 -10 0 -11 -33 -14 -43 -4 -8 8 11 44 23 44
5 0 11 -4 15 -10z m65 0 c0 -5 -4 -10 -10 -10 -5 0 -10 5 -10 10 0 6 5 10 10
10 6 0 10 -4 10 -10z m-2802 -45 c-3 -3 -9 2 -12 12 -6 14 -5 15 5 6 7 -7 10
-15 7 -18z m40 0 c-3 -3 -9 2 -12 12 -6 14 -5 15 5 6 7 -7 10 -15 7 -18z
m2069 19 c-3 -3 -12 -4 -19 -1 -8 3 -5 6 6 6 11 1 17 -2 13 -5z m203 -4 c0 -5
-2 -10 -4 -10 -3 0 -8 5 -11 10 -3 6 -1 10 4 10 6 0 11 -4 11 -10z m-46 -74
c12 -64 73 -116 136 -116 27 0 30 -3 25 -20 -3 -10 -10 -42 -14 -69 -6 -37
-18 -63 -47 -96 -54 -65 -104 -137 -104 -152 0 -26 24 -24 52 6 34 36 53 39
69 10 15 -29 4 -79 -38 -172 -23 -53 -33 -86 -29 -103 9 -35 22 -30 52 21 14
25 29 45 34 45 24 0 17 -41 -20 -118 -22 -46 -40 -93 -40 -104 0 -18 4 -19 33
-14 100 21 99 21 91 -10 -4 -16 -18 -57 -31 -92 -26 -71 -29 -100 -10 -125 11
-16 15 -15 55 14 23 17 49 29 56 26 24 -9 95 -106 131 -177 49 -98 67 -170 66
-267 l0 -84 37 2 c21 2 43 0 49 -4 6 -4 21 -44 33 -89 14 -56 37 -108 71 -162
l49 -78 -34 -79 c-109 -252 -284 -467 -576 -707 l-135 -111 -3 37 c-6 61 17
253 39 338 11 43 38 117 60 164 39 82 45 126 15 101 -36 -30 -139 -331 -116
-339 5 -2 4 -10 -4 -17 -17 -18 -28 -158 -28 -364 0 -121 5 -177 21 -251 12
-52 21 -94 21 -95 0 0 -31 0 -69 -1 -52 -1 -77 -6 -103 -22 -36 -22 -111 -98
-138 -140 l-15 -23 -60 25 c-34 13 -98 31 -143 40 -46 9 -91 20 -101 25 -33
18 -90 90 -122 153 -27 53 -31 69 -26 115 12 118 166 409 274 519 33 34 58 65
55 68 -21 21 -92 -21 -92 -55 0 -10 -5 -18 -12 -17 -7 2 -28 -21 -47 -49 -19
-29 -36 -51 -38 -49 -2 2 3 23 11 47 9 24 16 51 16 60 0 9 7 22 15 29 8 7 17
27 21 46 3 19 10 34 15 34 5 0 9 7 9 15 0 76 -99 -120 -129 -255 -7 -30 -15
-63 -18 -74 -8 -29 -69 -91 -124 -126 -54 -35 -45 -36 -115 15 -9 6 -29 4 -61
-9 -86 -34 -121 -32 -182 8 -29 20 -62 36 -72 36 -21 0 -69 -42 -69 -60 0 -26
-21 -5 -45 45 -32 69 -72 96 -188 128 -79 22 -94 30 -147 81 -32 31 -64 56
-71 56 -8 0 -10 19 -7 70 3 39 1 70 -3 70 -14 0 -10 42 5 54 19 15 7 101 -36
278 -18 73 -34 168 -36 211 -3 62 -7 77 -19 77 -23 0 -10 -142 29 -305 27
-112 31 -145 28 -240 -9 -357 0 -508 35 -596 4 -12 -6 -23 -38 -42 -25 -15
-74 -59 -111 -98 l-66 -71 -52 7 c-156 19 -309 65 -404 120 -39 23 -86 70
-110 111 -11 18 -12 18 -36 -3 -25 -24 -48 -30 -48 -14 0 5 17 23 39 40 34 27
39 37 46 88 4 32 31 119 60 193 30 74 57 149 60 165 4 17 13 49 21 73 18 55
18 92 0 92 -8 0 -16 -8 -18 -17 -3 -15 -5 -14 -10 5 -5 19 -2 22 19 22 25 0
25 2 21 53 -2 30 -15 76 -29 103 -25 50 -28 52 -89 43 -24 -4 -25 -3 -28 69
-2 40 2 88 7 108 9 32 8 36 -14 46 -33 15 -36 29 -21 88 15 59 9 66 -49 57
-24 -4 -35 -1 -39 10 -10 25 -6 57 10 78 10 13 14 41 13 85 -1 48 5 78 22 115
31 70 29 131 -8 196 l-29 51 39 77 c21 42 53 87 70 101 76 59 117 103 117 125
0 13 -5 25 -12 27 -7 3 -6 7 5 11 9 3 17 2 17 -3 0 -6 4 -10 8 -10 23 0 172
271 172 312 0 36 51 85 103 98 64 16 109 39 114 58 3 12 16 18 45 20 57 4 76
17 83 56 5 26 13 35 33 39 15 3 39 9 55 13 23 5 34 0 71 -34 32 -30 56 -42 89
-47 66 -10 259 24 342 60 46 20 67 26 63 18 -70 -139 -79 -171 -51 -180 7 -3
16 12 22 34 12 43 39 88 129 221 47 69 71 96 98 107 20 8 38 15 40 15 2 0 -8
-26 -22 -57 -29 -63 -35 -153 -15 -192 20 -37 30 -23 29 42 -1 52 5 76 39 152
22 50 44 100 47 113 9 29 19 28 116 -8 86 -32 144 -38 157 -18 4 7 6 25 4 40
-3 33 2 34 37 9 43 -30 150 -81 170 -81 16 0 19 -10 21 -82 8 -229 13 -202
-58 -307 -35 -51 -70 -114 -78 -140 -28 -95 19 -171 108 -171 44 0 90 50 149
160 114 213 147 290 160 375 12 79 35 184 51 232 10 33 24 39 85 42 29 1 32
-3 38 -33z m-2561 -147 c13 -47 22 -53 52 -33 l28 18 -9 -24 c-5 -14 -9 -52
-9 -85 0 -79 29 -136 119 -233 l70 -74 -46 -86 c-26 -48 -51 -88 -56 -90 -19
-6 -183 180 -260 297 -45 68 -82 128 -82 132 0 5 18 6 40 3 60 -10 60 10 1
120 -28 52 -51 98 -51 102 0 3 20 -10 44 -30 55 -44 95 -61 102 -43 2 8 -7 38
-21 68 -13 30 -25 61 -25 69 0 21 96 -82 103 -111z m3966 24 c11 -38 36 -93
55 -123 32 -49 34 -56 19 -65 -9 -5 -35 -27 -58 -47 l-41 -37 -18 30 c-9 16
-35 38 -56 49 -60 30 -174 25 -168 -8 2 -12 16 -15 69 -13 62 2 69 0 102 -28
19 -17 40 -44 47 -61 16 -39 33 -38 60 6 23 36 96 92 106 81 13 -13 5 -56 -15
-84 -12 -16 -41 -39 -64 -52 l-43 -23 -59 41 c-86 60 -188 86 -236 61 -27 -15
-49 -63 -49 -109 0 -22 16 -90 36 -153 45 -140 54 -243 30 -319 -14 -42 -15
-54 -5 -60 17 -10 33 4 79 71 71 104 99 119 238 127 80 5 92 4 92 -10 0 -9 10
-25 21 -36 16 -15 20 -27 15 -48 -12 -52 -11 -58 11 -61 23 -3 55 -41 67 -78
5 -17 0 -23 -32 -32 -48 -15 -87 -55 -107 -111 -37 -107 2 -170 108 -171 l57
0 0 -33 c0 -86 -62 -263 -114 -324 l-27 -32 -107 109 c-109 111 -183 160 -243
160 -62 0 -116 -88 -88 -145 27 -56 57 -67 191 -76 68 -4 124 -8 125 -8 13 -4
73 -66 73 -75 0 -30 -132 -76 -217 -76 -81 0 -140 18 -180 56 l-36 34 8 108
c15 180 8 222 -35 222 -26 0 -77 -65 -101 -130 -12 -30 -28 -93 -36 -140 -8
-47 -16 -87 -18 -88 -2 -2 -7 18 -11 44 -14 95 48 283 125 378 55 69 35 84
-56 41 l-53 -24 0 42 c0 23 -6 68 -14 100 -15 63 -17 59 49 69 11 2 21 11 23
21 3 15 -5 17 -56 17 l-59 0 -62 70 c-83 93 -91 110 -91 202 l0 77 41 11 c38
10 45 9 71 -10 22 -16 33 -19 41 -11 8 8 9 16 1 29 -18 28 -56 43 -102 39
l-43 -5 7 77 c11 124 11 124 84 42 35 -39 68 -71 72 -71 5 0 11 7 14 15 4 10
-18 42 -61 90 l-66 74 48 33 c26 18 81 65 121 105 39 41 72 69 72 63 0 -22 29
-8 54 25 30 39 87 95 98 95 3 0 -7 -25 -24 -55 -35 -64 -36 -120 -3 -120 16 0
19 6 17 27 -6 54 101 218 162 247 56 26 67 29 98 30 24 1 28 -5 47 -66z
m-1729 -240 c-1 -11 -26 -43 -34 -43 -3 0 -6 11 -6 25 0 18 5 25 20 25 11 0
20 -3 20 -7z m-50 -24 c0 -11 -4 -17 -10 -14 -5 3 -10 13 -10 21 0 8 5 14 10
14 6 0 10 -9 10 -21z m117 -4 c-4 -8 -18 -15 -32 -15 -35 0 -33 28 3 32 33 4
36 3 29 -17z m-1880 -7 c-3 -8 -6 -5 -6 6 -1 11 2 17 5 13 3 -3 4 -12 1 -19z
m3368 -42 c32 -14 35 -19 35 -55 0 -71 20 -137 65 -212 46 -77 54 -99 33 -99
-40 0 -96 -27 -138 -66 l-47 -44 -6 67 c-3 38 -18 109 -33 158 -52 175 -55
187 -43 222 5 17 15 34 22 37 24 9 79 6 112 -8z m280 -74 c3 -15 -1 -47 -10
-71 -20 -58 -19 -117 5 -168 24 -53 11 -56 -18 -5 -27 48 -52 143 -52 197 0
33 5 43 28 57 36 23 39 23 47 -10z m-4065 -362 c0 -11 -2 -20 -4 -20 -2 0 -6
9 -9 20 -3 11 -1 20 4 20 5 0 9 -9 9 -20z m50 0 c0 -11 -7 -20 -15 -20 -17 0
-18 2 -9 24 9 23 24 20 24 -4z m-223 -482 c-3 -8 -6 -5 -6 6 -1 11 2 17 5 13
3 -3 4 -12 1 -19z m3633 -77 c-11 -17 -27 -46 -36 -67 -19 -46 -23 -41 -15 19
5 38 11 52 31 63 38 21 43 17 20 -15z m304 -120 c3 -5 -6 -35 -19 -66 -25 -55
-26 -57 -48 -42 -48 31 -24 117 33 117 16 0 31 -4 34 -9z m74 -37 l22 -15 -20
-40 c-17 -32 -26 -39 -50 -39 -35 0 -37 10 -10 68 21 47 26 49 58 26z m88 -75
l29 -32 -45 7 c-54 8 -54 9 -40 35 14 28 21 27 56 -10z m-170 -278 c11 -51 26
-79 60 -112 26 -25 37 -30 46 -21 9 9 4 21 -20 51 -21 26 -32 51 -32 71 0 45
17 35 68 -41 23 -35 47 -65 52 -67 16 -6 12 26 -9 66 -32 63 -34 79 -12 85 23
6 41 -12 99 -100 54 -80 75 -138 56 -154 -23 -19 -16 -59 17 -91 l30 -31 24
23 23 22 46 -42 c56 -52 132 -163 116 -168 -7 -3 -27 10 -45 28 -21 21 -40 30
-49 27 -13 -5 -8 -18 29 -72 25 -37 45 -74 45 -83 0 -9 -12 -33 -26 -54 -26
-37 -27 -39 -8 -59 18 -20 18 -21 -38 -70 -38 -33 -70 -75 -99 -127 -58 -107
-90 -153 -100 -146 -14 8 -10 58 6 80 16 21 20 54 7 54 -5 0 -26 -15 -48 -33
-21 -19 -59 -46 -84 -62 -51 -32 -180 -87 -180 -77 0 20 97 126 142 155 29 18
59 41 67 50 21 27 6 47 -36 48 l-38 0 60 30 c71 34 110 74 124 126 24 84 10
142 -46 196 -26 25 -31 26 -49 12 -28 -21 -34 -18 -34 18 0 44 -25 139 -50
188 -12 22 -61 83 -110 137 -85 92 -90 99 -84 132 8 47 9 47 44 42 23 -3 32
-11 36 -31z m-3843 -11 c-3 -11 -9 -20 -14 -20 -11 0 -11 3 -3 24 9 23 23 20
17 -4z m47 0 c0 -12 -7 -20 -16 -20 -13 0 -14 3 -5 14 9 11 9 15 -1 19 -8 4
-7 6 5 6 11 1 17 -6 17 -19z m-127 -360 c3 -12 0 -20 -8 -20 -8 0 -11 8 -8 20
3 11 7 20 8 20 1 0 5 -9 8 -20z m217 5 c0 -8 -2 -15 -4 -15 -2 0 -6 7 -10 15
-3 8 -1 15 4 15 6 0 10 -7 10 -15z m17 -107 c-3 -8 -6 -5 -6 6 -1 11 2 17 5
13 3 -3 4 -12 1 -19z m-70 -20 c-3 -8 -6 -5 -6 6 -1 11 2 17 5 13 3 -3 4 -12
1 -19z m3140 -125 c-3 -10 -5 -2 -5 17 0 19 2 27 5 18 2 -10 2 -26 0 -35z
m-3110 15 c-3 -8 -6 -5 -6 6 -1 11 2 17 5 13 3 -3 4 -12 1 -19z m3030 -10 c-3
-7 -5 -2 -5 12 0 14 2 19 5 13 2 -7 2 -19 0 -25z m-149 -20 c6 -18 18 -60 27
-93 9 -33 25 -74 35 -91 18 -31 17 -31 -14 -96 -17 -36 -78 -122 -134 -191
-100 -120 -106 -126 -179 -158 -70 -30 -76 -31 -88 -16 -22 30 -39 139 -40
247 l0 105 132 110 c73 60 156 133 185 162 29 28 56 52 60 52 3 1 11 -14 16
-31z m-3076 -315 c5 -21 0 -43 -11 -43 -4 0 -7 14 -6 30 0 33 10 40 17 13z
m3795 -221 c-9 -10 -23 -34 -32 -55 -15 -37 -35 -50 -35 -22 0 14 66 95 78 95
3 0 -2 -8 -11 -18z m-3797 -142 c0 -5 -2 -10 -4 -10 -3 0 -8 5 -11 10 -3 6 -1
10 4 10 6 0 11 -4 11 -10z m40 -10 c0 -11 -4 -20 -10 -20 -5 0 -10 9 -10 20 0
11 5 20 10 20 6 0 10 -9 10 -20z m37 6 c-3 -8 -2 -17 4 -20 5 -2 4 -3 -3 -2
-17 3 -23 36 -8 36 7 0 10 -6 7 -14z m50 8 c-3 -3 -12 -4 -19 -1 -8 3 -5 6 6
6 11 1 17 -2 13 -5z m43 -16 c0 -19 -2 -20 -10 -8 -13 19 -13 30 0 30 6 0 10
-10 10 -22z m98 5 c-2 -9 -10 -18 -18 -21 -8 -3 -12 -1 -8 3 4 5 3 14 -3 22
-9 10 -7 13 11 13 15 0 20 -5 18 -17z m102 2 c0 -8 -4 -15 -10 -15 -5 0 -7 7
-4 15 4 8 8 15 10 15 2 0 4 -7 4 -15z m127 -22 c-11 -10 -26 8 -20 23 5 15 7
14 15 -1 6 -9 7 -19 5 -22z m53 23 c0 -16 -18 -31 -27 -22 -8 8 5 36 17 36 5
0 10 -6 10 -14z m33 -6 c3 -11 1 -18 -4 -14 -5 3 -9 12 -9 20 0 20 7 17 13 -6z
m74 -12 c-3 -7 -5 -2 -5 12 0 14 2 19 5 13 2 -7 2 -19 0 -25z m123 9 c0 -12
-6 -17 -17 -15 -26 5 -28 34 -3 34 13 0 20 -7 20 -19z m93 11 c-6 -7 -12 -18
-14 -24 -3 -7 -12 -6 -29 2 l-24 13 24 10 c36 14 55 14 43 -1z m47 -8 c0 -19
-11 -26 -23 -14 -8 8 3 34 14 34 5 0 9 -9 9 -20z m32 -2 c-7 -7 -12 -8 -12 -2
0 14 12 26 19 19 2 -3 -1 -11 -7 -17z m98 2 c0 -11 -4 -20 -10 -20 -5 0 -10 9
-10 20 0 11 5 20 10 20 6 0 10 -9 10 -20z m170 -5 c0 -8 -6 -12 -14 -9 -8 3
-12 12 -9 20 6 17 23 9 23 -11z m37 11 c-3 -8 -2 -17 4 -20 5 -2 4 -3 -3 -2
-17 3 -23 36 -8 36 7 0 10 -6 7 -14z m-252 -18 c6 -4 2 -8 -7 -8 -10 0 -18 7
-18 17 0 9 3 12 8 7 4 -5 12 -12 17 -16z m-785 2 c0 -5 -5 -10 -11 -10 -5 0
-7 5 -4 10 3 6 8 10 11 10 2 0 4 -4 4 -10z m405 0 c3 -5 1 -10 -4 -10 -6 0
-11 5 -11 10 0 6 2 10 4 10 3 0 8 -4 11 -10z"/>
<path d="M1221 1374 c0 -11 3 -14 6 -6 3 7 2 16 -1 19 -3 4 -6 -2 -5 -13z"/>
</g>
</svg>
